HIERARCHY
ROOT root
{
	OFFSET	0	13.1	24.9
	CHANNELS 6  Xposition Yposition Zposition Xrotation Yrotation Zrotation
	JOINT spine_1
	{
		OFFSET	0	9.99999	0
		CHANNELS 3  Xrotation Yrotation Zrotation
		JOINT spine_2
		{
			OFFSET	0	112	-10
			CHANNELS 3  Xrotation Yrotation Zrotation
			JOINT spine_3
			{
				OFFSET	0	206.5	19.3
				CHANNELS 3  Xrotation Yrotation Zrotation
				JOINT spine_4
				{
					OFFSET	0	110.4	14.6
					CHANNELS 3  Xrotation Yrotation Zrotation
					JOINT neck_1
					{
						OFFSET	0	71.8	-50.3
						CHANNELS 3  Xrotation Yrotation Zrotation
						JOINT neck_2
						{
							OFFSET	0	86.2	-25.8
							CHANNELS 3  Xrotation Yrotation Zrotation
							JOINT head_ee
							{
								OFFSET	0	179.8	-8.7
								CHANNELS 3  Xrotation Yrotation Zrotation
								End Site
								{
									OFFSET	1	0	0
								}
							}
						}
					}
					JOINT left_clavicle
					{
						OFFSET	-43.2	22.4	-70.8
						CHANNELS 3  Xrotation Yrotation Zrotation
						JOINT left_shoulder
						{
							OFFSET	-93.9	-5.79999	48.7
							CHANNELS 3  Xrotation Yrotation Zrotation
							JOINT left_elbow
							{
								OFFSET	-291.4	-30.8	15.2
								CHANNELS 3  Xrotation Yrotation Zrotation
								JOINT left_lowarm_twist
								{
									OFFSET	-110.7	-3.89999	13.6
									CHANNELS 3  Xrotation Yrotation Zrotation
									JOINT left_hand
									{
										OFFSET	-110.7	-3.89999	13.6
										CHANNELS 3  Xrotation Yrotation Zrotation
										JOINT left_ee
										{
											OFFSET	-80.8	-5.10001	12.1
											CHANNELS 3  Xrotation Yrotation Zrotation
											End Site
											{
												OFFSET	1	0	0
											}
										}
									}
								}
							}
						}
					}
					JOINT right_clavicle
					{
						OFFSET	43.2	22.4	-70.8
						CHANNELS 3  Xrotation Yrotation Zrotation
						JOINT right_shoulder
						{
							OFFSET	93.9	-5.79999	48.7
							CHANNELS 3  Xrotation Yrotation Zrotation
							JOINT right_elbow
							{
								OFFSET	291.4	-30.8	15.2
								CHANNELS 3  Xrotation Yrotation Zrotation
								JOINT right_lowarm_twist
								{
									OFFSET	110.7	-3.89999	13.6
									CHANNELS 3  Xrotation Yrotation Zrotation
									JOINT right_hand
									{
										OFFSET	110.7	-3.89999	13.6
										CHANNELS 3  Xrotation Yrotation Zrotation
										JOINT right_ee
										{
											OFFSET	80.8	-5.10001	12.1
											CHANNELS 3  Xrotation Yrotation Zrotation
											End Site
											{
												OFFSET	1	0	0
											}
										}
									}
								}
							}
						}
					}
				}
			}
		}
	}
	JOINT left_hip
	{
		OFFSET	-82.8	-127.5	0.300001
		CHANNELS 3  Xrotation Yrotation Zrotation
		JOINT left_knee
		{
			OFFSET	-28.2	-396.7	2.2
			CHANNELS 3  Xrotation Yrotation Zrotation
			JOINT left_ankle
			{
				OFFSET	-11.7	-411.3	35.4
				CHANNELS 3  Xrotation Yrotation Zrotation
				JOINT left_toes
				{
					OFFSET	0	-60	-88.6
					CHANNELS 3  Xrotation Yrotation Zrotation
					JOINT left_foot_ee
					{
						OFFSET	-22.5	-16.5	-42.2
						CHANNELS 3  Xrotation Yrotation Zrotation
						End Site
						{
							OFFSET	1	0	0
						}
					}
				}
			}
		}
	}
	JOINT right_hip
	{
		OFFSET	82.8	-127.5	0.300001
		CHANNELS 3  Xrotation Yrotation Zrotation
		JOINT right_knee
		{
			OFFSET	28.2	-396.7	2.2
			CHANNELS 3  Xrotation Yrotation Zrotation
			JOINT right_ankle
			{
				OFFSET	11.7	-411.3	35.4
				CHANNELS 3  Xrotation Yrotation Zrotation
				JOINT right_toes
				{
					OFFSET	0	-60	-88.6
					CHANNELS 3  Xrotation Yrotation Zrotation
					JOINT right_foot_ee
					{
						OFFSET	22.5	-16.5	-42.2
						CHANNELS 3  Xrotation Yrotation Zrotation
						End Site
						{
							OFFSET	1	0	0
						}
					}
				}
			}
		}
	}
}
MOTION
Frames: 13
Frame Time: 0.02
1183.8218497 751.586 -1713.42792867 -57.6693083679 73.3667220653 61.9525543802 7.28879 -0.177784 -1.21262 7.2896 -0.100268 -1.22148 7.29051 0.00318943 -1.22558 7.28847 -0.190394 -1.21071 -24.714 -18.9703 -0.86954 -27.8199 -36.0754 -11.6097 -0.0 0.0 -0.0 12.5462 -20.2659 25.1732 -36.8323 -14.0252 65.4403 0.231922 -6.55399 0.0132791 57.5777 -1.56308 -6.88003 -1.72863 -11.0747 -16.5901 -0.0 0.0 -0.0 10.7838 -9.99641 -20.3351 -47.2386 31.2701 -41.0912 0.464041 12.946 -0.0526496 39.54 0.325552 4.94162 3.54862 8.99016 -20.5646 0.0 0.0 0.0 42.1628 -44.094 9.08018 -45.2103 -0.831069 6.71174 16.9758 -20.55 -2.65757 19.6612 -0.0 -0.0 -0.0 0.0 -0.0 23.6293 -29.0671 -4.51678 -17.8755 -0.314876 -2.71397 34.4659 -2.24551 4.35384 6.64064 -0.0 -0.0 0.0 0.0 0.0 
1172.87789747 753.386 -1732.56869383 -63.2096745315 73.9404628602 67.5544411348 7.06931 -0.310518 -1.23093 7.07012 -0.231568 -1.24819 7.07396 -0.120643 -1.26374 7.07187 -0.318698 -1.22884 -24.5861 -19.1447 -1.21943 -27.703 -36.2661 -11.9913 -0.0 0.0 -0.0 12.3619 -19.8562 24.7768 -36.9041 -14.2491 63.8593 0.187314 -5.30142 0.00867198 57.9064 -1.59113 -6.91147 -1.19691 -7.55535 -11.3603 -0.0 0.0 -0.0 10.4042 -8.6 -19.7781 -47.0996 30.8158 -40.5147 0.513274 14.266 -0.0642322 44.1296 0.581305 5.46993 3.83439 15.1925 -19.5985 0.0 0.0 0.0 42.1705 -41.3007 7.2803 -39.7617 -0.451674 5.9649 16.2734 -23.2521 -2.62497 16.9746 -0.0 -0.0 -0.0 0.0 -0.0 22.1362 -32.3797 -4.63352 -17.435 -0.317354 -2.64644 34.5016 0.482077 4.37447 6.22794 -0.0 -0.0 0.0 0.0 0.0 
1175.0545285 753.386 -1734.23864962 -61.7324879938 73.7171875857 66.0164104404 7.06931 -0.310518 -1.23093 7.07012 -0.231568 -1.24819 7.07396 -0.120643 -1.26374 7.07187 -0.318698 -1.22884 -24.5861 -19.1447 -1.21943 -27.703 -36.2661 -11.9913 -0.0 0.0 -0.0 12.3619 -19.8562 24.7768 -36.9041 -14.2491 63.8593 0.187314 -5.30142 0.00867198 57.9064 -1.59113 -6.91147 -1.19691 -7.55535 -11.3603 -0.0 0.0 -0.0 10.4042 -8.6 -19.7781 -47.0996 30.8158 -40.5147 0.513274 14.266 -0.0642322 44.1296 0.581305 5.46993 3.83439 15.1925 -19.5985 0.0 0.0 0.0 42.1705 -41.3007 7.2803 -39.7617 -0.451674 5.9649 16.2734 -23.2521 -2.62497 16.9746 -0.0 -0.0 -0.0 0.0 -0.0 22.1362 -32.3797 -4.63352 -17.435 -0.317354 -2.64644 34.5016 0.482077 4.37447 6.22794 -0.0 -0.0 0.0 0.0 0.0 
1160.12139488 753.781 -1738.69585043 -75.7358440418 74.7191469751 80.1877592758 6.9576 -0.388806 -1.1773 6.95832 -0.313109 -1.19965 6.9638 -0.203811 -1.22297 6.96193 -0.394386 -1.17545 -23.9699 -19.357 -0.820153 -27.0934 -36.8515 -11.5467 -0.0 0.0 -0.0 12.3016 -19.3117 24.6746 -36.953 -14.3713 62.6974 0.182339 -5.16137 0.00821841 58.0175 -1.60065 -6.92206 -0.821915 -3.79328 -7.1548 -0.0 0.0 -0.0 10.2452 -7.84087 -19.5535 -46.5739 30.4721 -39.8912 0.542893 15.0528 -0.071728 47.6248 0.804068 5.85776 4.26554 21.763 -19.1065 0.0 0.0 0.0 41.9204 -37.2164 5.83299 -35.9585 -0.229871 5.42423 16.6859 -24.9921 -2.73623 15.2583 -0.0 -0.0 -0.0 0.0 -0.0 20.9656 -36.4549 -4.68967 -17.28 -0.318101 -2.62267 35.0271 2.45144 4.44422 6.70544 -0.0 -0.0 0.0 0.0 0.0 
1143.33574547 745.902 -1745.79976916 -76.6144937672 75.9123048068 81.6860913952 6.75098 -0.28419 -1.2113 6.75177 -0.206542 -1.22692 6.75509 -0.0906778 -1.24088 6.75306 -0.285499 -1.21099 -23.0186 -19.5773 -2.5786 -25.8588 -36.5145 -12.8283 -0.0 0.0 -0.0 12.1478 -18.6523 24.3625 -36.9886 -13.6769 61.8274 0.161207 -4.5659 0.00642671 59.0848 -1.69313 -7.02287 -0.808196 1.23483 -4.86445 -0.0 0.0 -0.0 10.1508 -6.97084 -19.4567 -48.2902 30.9033 -40.1556 0.572617 15.8366 -0.0796441 49.9856 0.967779 6.1118 4.88303 28.3441 -19.3758 0.0 0.0 0.0 46.4317 -34.1073 6.49383 -31.7037 -0.0249496 4.80377 13.4456 -21.5788 -2.16192 12.4721 -0.0 -0.0 -0.0 0.0 -0.0 18.0432 -39.4953 -7.20881 -17.336 -0.317839 -2.63126 38.1442 3.22346 4.7442 6.77958 -0.0 -0.0 0.0 0.0 0.0 
1129.02695716 746.595 -1747.15679093 -76.1480539451 75.9133140251 80.9772262102 6.6365 0.120501 -1.02852 6.63707 0.1857 -1.01877 6.63307 0.282521 -0.996271 6.63171 0.121642 -1.02838 -22.3736 -20.1625 -4.86381 -25.0322 -36.5934 -14.915 -0.0 0.0 -0.0 11.9156 -18.1593 23.8588 -37.7754 -12.7659 61.3626 0.191197 -5.41067 0.00903445 60.1491 -1.78722 -7.12167 -0.863871 5.99907 -3.14423 -0.0 0.0 -0.0 10.2735 -4.55267 -19.9127 -47.4069 31.6668 -38.2835 0.587464 16.2258 -0.0837441 54.2055 1.28606 6.54848 5.13475 28.6364 -20.8642 0.0 0.0 0.0 52.3482 -32.2438 8.55252 -28.67 0.092706 4.35313 14.846 -11.8829 -2.19723 6.54593 -0.0 -0.0 -0.0 0.0 -0.0 7.39404 -40.9671 -14.5536 -5.82026 -0.195505 -0.87146 35.9799 1.83333 4.52893 7.12009 -0.0 -0.0 0.0 0.0 0.0 
1106.13792199 747.243 -1748.27966813 -86.0353219939 75.8255381871 91.9779841531 6.56978 0.150296 -0.98987 6.57029 0.212976 -0.978302 6.56604 0.306908 -0.953019 6.56481 0.152553 -0.989524 -21.9784 -20.094 -6.48119 -24.3347 -35.6991 -16.0805 -0.0 0.0 -0.0 11.6661 -17.9473 23.3006 -38.384 -12.0963 60.9258 0.210179 -5.94417 0.0109124 60.8938 -1.85414 -7.18976 -0.982637 9.14483 -2.53081 -0.0 0.0 -0.0 10.3027 -4.774 -19.9526 -45.866 32.3993 -36.0951 0.59778 16.4954 -0.0866501 57.0505 1.51849 6.82927 5.50103 28.7257 -23.2646 0.0 0.0 0.0 51.0383 -31.3316 8.35217 -28.1311 0.111101 4.27246 22.4755 -3.04513 -3.07886 3.80225 -0.0 -0.0 -0.0 0.0 -0.0 2.61247 -41.8716 -19.0076 2.31238 0.102107 0.34011 34.1656 -1.68017 4.32711 7.30951 -0.0 -0.0 0.0 0.0 0.0 
1049.64938689 742.383 -1748.96645197 -97.788504492 76.9715464483 104.782961352 6.10991 -0.0272341 -1.15025 6.11064 0.0460099 -1.14966 6.10888 0.166428 -1.13848 6.10707 -0.0154502 -1.15047 -21.9266 -18.5484 -3.93658 -24.0878 -33.8913 -12.8889 -0.0 0.0 -0.0 11.4647 -16.7846 22.9031 -38.5195 -10.2044 61.4487 0.180085 -5.09791 0.00801683 62.4231 -1.99434 -7.32686 -0.969557 13.1178 -0.698952 -0.0 0.0 -0.0 10.3135 -7.67266 -19.7026 -42.9787 33.7451 -34.1832 0.737942 20.0801 -0.130653 58.9499 1.68134 7.01022 6.00461 28.4216 -26.9226 0.0 0.0 0.0 50.5159 -31.9446 8.20946 -25.6355 0.186343 3.8969 26.6692 18.8231 -3.60454 -1.09859 0.0 0.0 -0.0 0.0 -0.0 -3.44612 -39.0537 -22.3767 7.25612 0.366038 1.05213 40.5415 -4.1611 4.90474 8.11142 -0.0 -0.0 0.0 0.0 0.0 
1046.39039867 742.383 -1745.08125946 -100.70637819 76.8611125817 107.77856391 6.10991 -0.0272341 -1.15025 6.11064 0.0460099 -1.14966 6.10888 0.166428 -1.13848 6.10707 -0.0154502 -1.15047 -21.9266 -18.5484 -3.93658 -24.0878 -33.8913 -12.8889 -0.0 0.0 -0.0 11.4647 -16.7846 22.9031 -38.5195 -10.2044 61.4487 0.180085 -5.09791 0.00801683 62.4231 -1.99434 -7.32686 -0.969557 13.1178 -0.698952 -0.0 0.0 -0.0 10.3135 -7.67266 -19.7026 -42.9787 33.7451 -34.1832 0.737942 20.0801 -0.130653 58.9499 1.68134 7.01022 6.00461 28.4216 -26.9226 0.0 0.0 0.0 50.5159 -31.9446 8.20946 -25.6355 0.186343 3.8969 26.6692 18.8231 -3.60454 -1.09859 0.0 0.0 -0.0 0.0 -0.0 -3.44612 -39.0537 -22.3767 7.25612 0.366038 1.05213 40.5415 -4.1611 4.90474 8.11142 -0.0 -0.0 0.0 0.0 0.0 
1040.29399319 737.28 -1745.51960903 -103.450391368 76.6011930146 110.932364342 5.96379 -0.295218 -1.10873 5.96445 -0.224073 -1.12526 5.96808 -0.101969 -1.14281 5.96637 -0.281165 -1.11238 -21.9321 -18.7691 -2.78796 -24.2768 -34.8426 -12.0302 -0.0 0.0 -0.0 11.5147 -16.3409 23.0378 -38.5863 -9.15506 61.22 0.155845 -4.41466 0.0060069 62.9931 -2.04752 -7.377 -1.15996 15.8465 -0.677741 -0.0 0.0 -0.0 10.1266 -8.8313 -19.2233 -41.1748 33.1951 -33.4105 0.884044 23.6498 -0.185091 60.4591 1.81497 7.15012 6.15175 28.0385 -28.2258 0.0 0.0 0.0 49.1411 -32.6684 7.98671 -18.5516 0.310063 2.8176 20.5574 25.7572 -2.95472 -3.5317 0.0 0.0 -0.0 0.0 -0.0 -4.51735 -37.9065 -22.6078 6.73766 0.335478 0.978534 40.5043 -1.44288 4.91003 11.3657 -0.0 -0.0 0.0 0.0 0.0 
1020.07411743 726.298 -1741.58317188 -106.518584023 76.3824539312 114.172123514 6.10938 -0.583806 -1.06795 6.10986 -0.51467 -1.10293 6.11912 -0.396379 -1.15075 6.11773 -0.573133 -1.07372 -19.7579 -19.9376 -3.29104 -21.9961 -36.7244 -12.2977 -0.0 0.0 -0.0 11.6432 -16.72 23.3125 -38.0935 -7.46148 61.6317 0.185277 -5.24408 0.00848473 64.8298 -2.22226 -7.53495 -1.43494 19.7133 -0.602005 -0.0 0.0 -0.0 9.87801 -9.618 -18.6709 -37.0736 29.4818 -33.44 1.03456 27.1341 -0.249664 60.8303 1.8484 7.18399 6.71871 27.8398 -32.4275 0.0 0.0 0.0 47.7466 -33.2172 7.49884 -9.90292 0.279357 1.49222 9.93121 28.2131 -1.50553 -5.63896 0.0 0.0 -0.0 0.0 -0.0 -4.49904 -36.0078 -21.4102 6.36311 0.313818 0.925204 40.1992 0.462434 4.89656 14.7628 -0.0 -0.0 0.0 0.0 0.0 
1000.92823619 730.404 -1741.90985864 -100.934552628 75.3769470204 107.9116675 6.31261 -0.704913 -1.23315 6.31323 -0.625022 -1.2755 6.32625 -0.492922 -1.33212 6.32445 -0.697104 -1.23758 -13.2493 -20.3085 -0.632982 -14.4684 -38.3104 -7.37863 -0.0 0.0 -0.0 11.4341 -17.2694 22.8091 -37.1241 -6.09753 63.5012 0.234887 -6.63702 0.0136196 65.9139 -2.32777 -7.62556 -1.83071 23.1709 -1.30679 -0.0 0.0 -0.0 9.64784 -12.946 -17.8754 -31.2897 22.5116 -35.5498 1.34883 33.748 -0.409155 56.4832 1.47103 6.7742 7.22972 27.1481 -36.7962 0.0 0.0 0.0 43.2615 -33.2518 5.6413 0.506907 -0.021205 -0.0748977 3.17545 23.2848 -0.477239 -9.42739 0.0 0.0 -0.0 0.0 -0.0 -2.06838 -31.0765 -18.5442 4.25144 0.198276 0.622018 39.9685 2.8327 4.90005 20.6878 -0.0 -0.0 0.0 0.0 0.0 
997.462174297 730.404 -1737.01916942 -103.732754772 75.2163668058 110.804562395 6.31261 -0.704913 -1.23315 6.31323 -0.625022 -1.2755 6.32625 -0.492922 -1.33212 6.32445 -0.697104 -1.23758 -13.2493 -20.3085 -0.632982 -14.4684 -38.3104 -7.37863 -0.0 0.0 -0.0 11.4341 -17.2694 22.8091 -37.1241 -6.09753 63.5012 0.234887 -6.63702 0.0136196 65.9139 -2.32777 -7.62556 -1.83071 23.1709 -1.30679 -0.0 0.0 -0.0 9.64784 -12.946 -17.8754 -31.2897 22.5116 -35.5498 1.34883 33.748 -0.409155 56.4832 1.47103 6.7742 7.22972 27.1481 -36.7962 0.0 0.0 0.0 43.2615 -33.2518 5.6413 0.506907 -0.021205 -0.0748977 3.17545 23.2848 -0.477239 -9.42739 0.0 0.0 -0.0 0.0 -0.0 -2.06838 -31.0765 -18.5442 4.25144 0.198276 0.622018 39.9685 2.8327 4.90005 20.6878 -0.0 -0.0 0.0 0.0 0.0 
